<svg data-v-423bf9ae="" xmlns="http://www.w3.org/2000/svg" viewBox="0 0 874 90" class="iconLeft"><!----><!----><!----><g data-v-423bf9ae="" id="e623e356-b679-46f7-9d86-2de559341668" fill="#ffffff" transform="matrix(5.628517904206723,0,0,5.628517904206723,151.4928378001992,-2.673548001757034)"><path d="M10.91 4.48L10.91 4.48L10.84 6.79L10.84 6.79Q10.84 8.69 10.95 10.20L10.95 10.20L10.95 10.20Q11.06 11.70 11.45 13.47L11.45 13.47L11.45 13.47Q11.14 13.72 10.47 13.72L10.47 13.72L10.47 13.72Q9.17 13.72 9.17 12.59L9.17 12.59L9.17 12.59Q9.17 11.65 9.26 9.72L9.26 9.72L9.26 9.72Q9.35 7.78 9.35 6.69L9.35 6.69L9.35 6.69Q8.60 7.78 7.76 9.39L7.76 9.39L7.76 9.39Q6.93 10.99 6.93 11.35L6.93 11.35L6.93 11.35Q6.93 11.72 7 11.91L7 11.91L7 11.91Q6.69 12.11 6.18 12.11L6.18 12.11L6.18 12.11Q5.67 12.11 5.33 11.83L5.33 11.83L5.33 11.83Q4.98 11.55 4.75 11.06L4.75 11.06L4.75 11.06Q4.52 10.57 3.94 9.14L3.94 9.14L3.94 9.14Q3.36 7.70 2.88 6.66L2.88 6.66L2.88 6.66Q2.52 8.92 2.52 10.65L2.52 10.65L2.52 10.65Q2.52 12.39 2.63 13.47L2.63 13.47L2.63 13.47Q2.18 13.64 1.74 13.64L1.74 13.64L1.74 13.64Q0.84 13.64 0.84 12.74L0.84 12.74L0.84 12.74Q0.84 12.05 1.16 10.00L1.16 10.00L1.16 10.00Q1.47 7.95 1.47 6.54L1.47 6.54L1.47 6.54Q1.47 5.12 1.32 3.89L1.32 3.89L1.32 3.89Q2.07 3.70 2.49 3.70L2.49 3.70L2.49 3.70Q3.26 3.70 3.53 4.24L3.53 4.24L3.53 4.24Q3.95 5.12 4.77 7.05L4.77 7.05L4.77 7.05Q5.59 8.97 6.10 10.01L6.10 10.01L6.10 10.01Q6.24 9.72 6.75 8.74L6.75 8.74L6.75 8.74Q7.27 7.77 7.61 7.08L7.61 7.08L7.61 7.08Q7.95 6.38 8.31 5.43L8.31 5.43L8.31 5.43Q8.67 4.47 8.76 3.75L8.76 3.75L8.76 3.75Q9.27 3.61 9.75 3.61L9.75 3.61L9.75 3.61Q10.23 3.61 10.57 3.82L10.57 3.82L10.57 3.82Q10.91 4.03 10.91 4.48ZM14.06 10.46L14.06 10.46L14.06 10.46Q14.06 11.47 14.38 12.05L14.38 12.05L14.38 12.05Q14.70 12.63 15.46 12.63L15.46 12.63L15.46 12.63Q16.21 12.63 16.64 12.12L16.64 12.12L16.64 12.12Q17.07 11.61 17.07 10.88L17.07 10.88L17.07 10.88Q17.54 10.88 17.89 11.12L17.89 11.12L17.89 11.12Q18.24 11.35 18.24 11.77L18.24 11.77L18.24 11.77Q18.24 12.64 17.32 13.22L17.32 13.22L17.32 13.22Q16.39 13.80 15.37 13.80L15.37 13.80L15.37 13.80Q13.78 13.80 13.06 12.94L13.06 12.94L13.06 12.94Q12.35 12.08 12.35 10.39L12.35 10.39L12.35 10.39Q12.35 8.69 13.31 7.54L13.31 7.54L13.31 7.54Q14.27 6.38 15.86 6.38L15.86 6.38L15.86 6.38Q16.95 6.38 17.62 6.88L17.62 6.88L17.62 6.88Q18.28 7.38 18.28 8.42L18.28 8.42L18.28 8.42Q18.28 9.46 17.34 9.99L17.34 9.99L17.34 9.99Q16.39 10.51 15.04 10.51L15.04 10.51L15.04 10.51Q14.56 10.51 14.06 10.46ZM14.07 9.35L14.07 9.35L14.07 9.35Q14.49 9.44 14.95 9.44L14.95 9.44L14.95 9.44Q15.96 9.44 16.65 9.06L16.65 9.06L16.65 9.06Q16.73 8.72 16.73 8.53L16.73 8.53L16.73 8.53Q16.73 8.04 16.38 7.78L16.38 7.78L16.38 7.78Q16.03 7.53 15.42 7.53L15.42 7.53L15.42 7.53Q14.81 7.53 14.32 7.92L14.32 7.92L14.32 7.92Q14.07 8.65 14.07 9.35ZM26.12 7.98L26.12 7.98L25.98 11.06L25.98 11.06Q25.98 12.33 26.38 13.55L26.38 13.55L26.38 13.55Q25.98 13.72 25.48 13.72L25.48 13.72L25.48 13.72Q24.29 13.72 24.29 12.39L24.29 12.39L24.29 12.39Q24.29 11.79 24.44 10.37L24.44 10.37L24.44 10.37Q24.60 8.95 24.60 8.58L24.60 8.58L24.60 8.58Q24.60 7.88 23.97 7.88L23.97 7.88L23.97 7.88Q23.51 7.88 22.93 8.55L22.93 8.55L22.93 8.55Q22.34 9.21 21.93 10.03L21.93 10.03L21.93 10.03Q21.52 10.85 21.45 11.38L21.45 11.38L21.45 11.38Q21.50 12.47 21.73 13.47L21.73 13.47L21.73 13.47Q21.28 13.64 20.80 13.64L20.80 13.64L20.80 13.64Q20.31 13.64 20.01 13.41L20.01 13.41L20.01 13.41Q19.71 13.17 19.71 12.76L19.71 12.76L19.71 12.76Q19.71 12.35 19.84 11.28L19.84 11.28L19.84 11.28Q19.96 10.21 19.96 9.15L19.96 9.15L19.96 9.15Q19.96 8.09 19.64 6.72L19.64 6.72L19.64 6.72Q20.09 6.55 20.59 6.55L20.59 6.55L20.59 6.55Q21.10 6.55 21.41 6.85L21.41 6.85L21.41 6.85Q21.73 7.14 21.73 7.57L21.73 7.57L21.73 7.57Q21.73 8.01 21.62 8.96L21.62 8.96L21.62 8.96Q22.15 7.97 23.00 7.22L23.00 7.22L23.00 7.22Q23.86 6.47 24.71 6.47L24.71 6.47L24.71 6.47Q26.12 6.47 26.12 7.98ZM32.24 3.30L32.24 3.30L32.24 3.30Q32.69 3.14 33.17 3.14L33.17 3.14L33.17 3.14Q33.64 3.14 33.95 3.45L33.95 3.45L33.95 3.45Q34.26 3.77 34.26 4.24L34.26 4.24L34.26 4.24Q34.26 4.70 34.12 6.45L34.12 6.45L34.12 6.45Q33.98 8.19 33.98 9.88L33.98 9.88L33.98 9.88Q33.98 11.56 34.31 13.47L34.31 13.47L34.31 13.47Q33.81 13.64 33.26 13.64L33.26 13.64L33.26 13.64Q32.34 13.64 32.34 12.33L32.34 12.33L32.34 12.33Q32.34 11.90 32.52 10.78L32.52 10.78L32.52 10.78Q31.93 12.03 31.48 12.63L31.48 12.63L31.48 12.63Q31.02 13.23 30.60 13.48L30.60 13.48L30.60 13.48Q30.17 13.72 29.69 13.72L29.69 13.72L29.69 13.72Q28.63 13.72 28.06 12.94L28.06 12.94L28.06 12.94Q27.50 12.15 27.50 11.00L27.50 11.00L27.50 11.00Q27.50 9.86 27.91 8.84L27.91 8.84L27.91 8.84Q28.32 7.83 29.16 7.15L29.16 7.15L29.16 7.15Q29.99 6.47 30.93 6.47L30.93 6.47L30.93 6.47Q31.86 6.47 32.55 6.72L32.55 6.72L32.55 6.72Q32.52 4.91 32.24 3.30ZM32.55 7.91L32.55 7.91L32.55 7.91Q31.86 7.66 31.07 7.66L31.07 7.66L31.07 7.66Q30.27 7.66 29.69 8.12L29.69 8.12L29.69 8.12Q29.22 9.25 29.22 10.65L29.22 10.65L29.22 10.65Q29.22 11.30 29.40 11.89L29.40 11.89L29.40 11.89Q29.58 12.47 30.00 12.47L30.00 12.47L30.00 12.47Q30.65 12.47 31.46 11.03L31.46 11.03L31.46 11.03Q32.28 9.59 32.55 7.91ZM36.88 10.46L36.88 10.46L36.88 10.46Q36.88 11.47 37.20 12.05L37.20 12.05L37.20 12.05Q37.52 12.63 38.28 12.63L38.28 12.63L38.28 12.63Q39.03 12.63 39.46 12.12L39.46 12.12L39.46 12.12Q39.89 11.61 39.89 10.88L39.89 10.88L39.89 10.88Q40.36 10.88 40.71 11.12L40.71 11.12L40.71 11.12Q41.06 11.35 41.06 11.77L41.06 11.77L41.06 11.77Q41.06 12.64 40.14 13.22L40.14 13.22L40.14 13.22Q39.21 13.80 38.19 13.80L38.19 13.80L38.19 13.80Q36.60 13.80 35.88 12.94L35.88 12.94L35.88 12.94Q35.17 12.08 35.17 10.39L35.17 10.39L35.17 10.39Q35.17 8.69 36.13 7.54L36.13 7.54L36.13 7.54Q37.09 6.38 38.68 6.38L38.68 6.38L38.68 6.38Q39.77 6.38 40.44 6.88L40.44 6.88L40.44 6.88Q41.10 7.38 41.10 8.42L41.10 8.42L41.10 8.42Q41.10 9.46 40.16 9.99L40.16 9.99L40.16 9.99Q39.21 10.51 37.86 10.51L37.86 10.51L37.86 10.51Q37.38 10.51 36.88 10.46ZM36.89 9.35L36.89 9.35L36.89 9.35Q37.31 9.44 37.77 9.44L37.77 9.44L37.77 9.44Q38.78 9.44 39.47 9.06L39.47 9.06L39.47 9.06Q39.55 8.72 39.55 8.53L39.55 8.53L39.55 8.53Q39.55 8.04 39.20 7.78L39.20 7.78L39.20 7.78Q38.85 7.53 38.24 7.53L38.24 7.53L38.24 7.53Q37.63 7.53 37.14 7.92L37.14 7.92L37.14 7.92Q36.89 8.65 36.89 9.35ZM42.57 3.30L42.57 3.30L42.57 3.30Q43.02 3.14 43.50 3.14L43.50 3.14L43.50 3.14Q43.97 3.14 44.29 3.45L44.29 3.45L44.29 3.45Q44.60 3.77 44.60 4.31L44.60 4.31L44.60 4.31Q44.60 4.84 44.46 6.46L44.46 6.46L44.46 6.46Q44.31 8.08 44.31 9.00L44.31 9.00L44.31 9.00Q44.31 11.28 44.63 13.47L44.63 13.47L44.63 13.47Q44.18 13.64 43.68 13.64L43.68 13.64L43.68 13.64Q42.60 13.64 42.60 12.59L42.60 12.59L42.60 12.59Q42.60 12.08 42.76 10.61L42.76 10.61L42.76 10.61Q42.91 9.13 42.91 8.23L42.91 8.23L42.91 8.23Q42.91 5.25 42.57 3.30ZM47.43 11.09L47.43 11.09L47.43 11.09Q47.39 11.28 47.39 11.41L47.39 11.41L47.39 11.41Q47.39 11.98 47.73 12.29L47.73 12.29L47.73 12.29Q48.08 12.60 48.66 12.60L48.66 12.60L48.66 12.60Q49.24 12.60 49.62 12.38L49.62 12.38L49.62 12.38Q50.01 12.17 50.01 11.73L50.01 11.73L50.01 11.73Q50.01 11.30 49.59 11.04L49.59 11.04L49.59 11.04Q49.18 10.78 48.60 10.63L48.60 10.63L48.60 10.63Q48.02 10.47 47.43 10.28L47.43 10.28L47.43 10.28Q46.84 10.09 46.43 9.69L46.43 9.69L46.43 9.69Q46.02 9.28 46.02 8.67L46.02 8.67L46.02 8.67Q46.02 7.70 47.04 7.04L47.04 7.04L47.04 7.04Q48.06 6.38 49.18 6.38L49.18 6.38L49.18 6.38Q50.41 6.38 51.06 6.89L51.06 6.89L51.06 6.89Q51.44 7.18 51.44 7.67L51.44 7.67L51.44 7.67Q51.44 8.15 51.06 8.45L51.06 8.45L51.06 8.45Q50.69 8.75 50.16 8.75L50.16 8.75L50.16 8.75Q50.05 8.75 49.88 8.72L49.88 8.72L49.88 8.72Q49.92 8.54 49.92 8.40L49.92 8.40L49.92 8.40Q49.92 7.99 49.62 7.78L49.62 7.78L49.62 7.78Q49.31 7.57 48.78 7.57L48.78 7.57L48.78 7.57Q48.26 7.57 47.82 7.78L47.82 7.78L47.82 7.78Q47.66 8.01 47.66 8.36L47.66 8.36L47.66 8.36Q47.66 8.71 48.06 8.93L48.06 8.93L48.06 8.93Q48.47 9.14 49.05 9.30L49.05 9.30L49.05 9.30Q49.63 9.46 50.22 9.67L50.22 9.67L50.22 9.67Q50.81 9.87 51.21 10.30L51.21 10.30L51.21 10.30Q51.62 10.72 51.62 11.37L51.62 11.37L51.62 11.37Q51.62 12.42 50.57 13.11L50.57 13.11L50.57 13.11Q49.53 13.80 48.43 13.80L48.43 13.80L48.43 13.80Q47.32 13.80 46.60 13.41L46.60 13.41L46.60 13.41Q45.88 13.01 45.88 12.19L45.88 12.19L45.88 12.19Q45.88 11.69 46.25 11.38L46.25 11.38L46.25 11.38Q46.62 11.06 47.15 11.06L47.15 11.06L47.15 11.06Q47.26 11.06 47.43 11.09ZM55.10 13.80L55.10 13.80L55.10 13.80Q53.56 13.80 52.84 12.90L52.84 12.90L52.84 12.90Q52.11 12.00 52.11 10.38L52.11 10.38L52.11 10.38Q52.11 8.76 53.07 7.57L53.07 7.57L53.07 7.57Q54.04 6.38 55.55 6.38L55.55 6.38L55.55 6.38Q58.66 6.38 58.66 9.88L58.66 9.88L58.66 9.88Q58.66 11.52 57.65 12.66L57.65 12.66L57.65 12.66Q56.64 13.80 55.10 13.80ZM54.10 7.92L54.10 7.92L54.10 7.92Q53.84 8.74 53.84 9.55L53.84 9.55L53.84 9.55Q53.84 10.36 53.90 10.81L53.90 10.81L53.90 10.81Q53.96 11.26 54.11 11.70L54.11 11.70L54.11 11.70Q54.43 12.61 55.38 12.61L55.38 12.61L55.38 12.61Q56.32 12.61 56.62 12.11L56.62 12.11L56.62 12.11Q56.92 11.61 56.92 10.56L56.92 10.56L56.92 10.56Q56.92 7.57 55.51 7.57L55.51 7.57L55.51 7.57Q54.70 7.57 54.10 7.92ZM66.29 7.98L66.29 7.98L66.15 11.06L66.15 11.06Q66.15 12.33 66.54 13.55L66.54 13.55L66.54 13.55Q66.15 13.72 65.65 13.72L65.65 13.72L65.65 13.72Q64.46 13.72 64.46 12.39L64.46 12.39L64.46 12.39Q64.46 11.79 64.61 10.37L64.61 10.37L64.61 10.37Q64.76 8.95 64.76 8.58L64.76 8.58L64.76 8.58Q64.76 7.88 64.13 7.88L64.13 7.88L64.13 7.88Q63.67 7.88 63.09 8.55L63.09 8.55L63.09 8.55Q62.51 9.21 62.10 10.03L62.10 10.03L62.10 10.03Q61.68 10.85 61.61 11.38L61.61 11.38L61.61 11.38Q61.67 12.47 61.89 13.47L61.89 13.47L61.89 13.47Q61.45 13.64 60.96 13.64L60.96 13.64L60.96 13.64Q60.48 13.64 60.18 13.41L60.18 13.41L60.18 13.41Q59.88 13.17 59.88 12.76L59.88 12.76L59.88 12.76Q59.88 12.35 60.00 11.28L60.00 11.28L60.00 11.28Q60.13 10.21 60.13 9.15L60.13 9.15L60.13 9.15Q60.13 8.09 59.81 6.72L59.81 6.72L59.81 6.72Q60.26 6.55 60.76 6.55L60.76 6.55L60.76 6.55Q61.26 6.55 61.58 6.85L61.58 6.85L61.58 6.85Q61.89 7.14 61.89 7.57L61.89 7.57L61.89 7.57Q61.89 8.01 61.78 8.96L61.78 8.96L61.78 8.96Q62.31 7.97 63.17 7.22L63.17 7.22L63.17 7.22Q64.02 6.47 64.88 6.47L64.88 6.47L64.88 6.47Q66.29 6.47 66.29 7.98ZM78.34 11.70L78.34 11.70L78.34 11.70Q78.51 12.08 78.51 12.56L78.51 12.56L78.51 12.56Q78.51 13.03 78.18 13.38L78.18 13.38L78.18 13.38Q77.85 13.72 77.38 13.72L77.38 13.72L77.38 13.72Q75.89 13.72 72.73 13.55L72.73 13.55L72.73 13.55Q72.48 13.54 72.28 13.39L72.28 13.39L72.28 13.39Q72.09 13.24 72.09 13.02L72.09 13.02L72.09 13.02Q72.09 12.28 72.20 10.51L72.20 10.51L72.20 10.51Q72.32 8.75 72.32 7.22L72.32 7.22L72.32 7.22Q72.32 5.68 72.03 3.70L72.03 3.70L72.03 3.70Q73.07 3.78 74.82 3.78L74.82 3.78L74.82 3.78Q76.57 3.78 78.16 3.53L78.16 3.53L78.16 3.53Q78.33 3.84 78.33 4.26L78.33 4.26L78.33 4.26Q78.33 4.69 78.00 5.02L78.00 5.02L78.00 5.02Q77.67 5.35 77.19 5.35L77.19 5.35L77.19 5.35Q76.71 5.35 75.65 5.21L75.65 5.21L75.65 5.21Q74.59 5.07 74.09 5.07L74.09 5.07L74.09 5.07Q73.98 6.48 73.96 7.73L73.96 7.73L73.96 7.73Q74.84 7.81 75.86 7.81L75.86 7.81L75.86 7.81Q76.87 7.81 77.60 7.52L77.60 7.52L77.60 7.52Q77.77 7.83 77.77 8.25L77.77 8.25L77.77 8.25Q77.77 8.68 77.44 9.02L77.44 9.02L77.44 9.02Q77.11 9.37 76.66 9.37L76.66 9.37L76.66 9.37Q76.20 9.37 75.31 9.19L75.31 9.19L75.31 9.19Q74.41 9.02 73.95 9.02L73.95 9.02L73.95 9.02Q73.95 11.23 74.05 12.26L74.05 12.26L74.05 12.26Q74.72 12.32 75.10 12.32L75.10 12.32L75.10 12.32Q76.94 12.32 78.34 11.70ZM86.07 12.68L86.07 12.68L86.07 12.68Q86.07 13.17 85.81 13.45L85.81 13.45L85.81 13.45Q85.55 13.72 85.12 13.72L85.12 13.72L85.12 13.72Q84.69 13.72 84.34 13.55L84.34 13.55L84.34 13.55Q84.00 13.37 83.66 12.96L83.66 12.96L83.66 12.96Q83.33 12.56 83.13 12.28L83.13 12.28L83.13 12.28Q82.85 11.84 82.11 10.56L82.11 10.56L82.11 10.56Q80.71 11.89 80.71 13.64L80.71 13.64L80.71 13.64Q80.01 13.64 79.54 13.37L79.54 13.37L79.54 13.37Q79.07 13.10 79.07 12.59L79.07 12.59L79.07 12.59Q79.07 12.07 79.41 11.63L79.41 11.63L79.41 11.63Q79.76 11.19 80.52 10.54L80.52 10.54L80.52 10.54Q81.28 9.90 81.54 9.65L81.54 9.65L81.54 9.65Q81.00 8.83 80.48 8.37L80.48 8.37L80.48 8.37Q79.95 7.90 79.14 7.59L79.14 7.59L79.14 7.59Q79.14 7.13 79.44 6.84L79.44 6.84L79.44 6.84Q79.74 6.55 80.15 6.55L80.15 6.55L80.15 6.55Q80.56 6.55 80.88 6.70L80.88 6.70L80.88 6.70Q81.21 6.85 81.46 7.04L81.46 7.04L81.46 7.04Q81.70 7.22 82.00 7.59L82.00 7.59L82.00 7.59Q82.35 7.99 82.91 8.85L82.91 8.85L82.91 8.85Q83.24 8.46 83.41 8.22L83.41 8.22L83.41 8.22Q83.83 7.59 83.83 6.55L83.83 6.55L83.83 6.55Q84.35 6.55 84.69 6.59L84.69 6.59L84.69 6.59Q85.04 6.64 85.34 6.85L85.34 6.85L85.34 6.85Q85.64 7.07 85.64 7.46L85.64 7.46L85.64 7.46Q85.64 7.85 85.25 8.29L85.25 8.29L85.25 8.29Q84.85 8.72 84.25 9.18L84.25 9.18L84.25 9.18Q83.65 9.63 83.48 9.81L83.48 9.81L83.48 9.81Q84.08 11.03 84.69 11.74L84.69 11.74L84.69 11.74Q85.29 12.45 86.07 12.68ZM87.42 4.49L87.42 4.49L87.42 4.49Q87.86 4.27 88.33 4.27L88.33 4.27L88.33 4.27Q88.79 4.27 89.07 4.56L89.07 4.56L89.07 4.56Q89.36 4.86 89.36 5.43L89.36 5.43L89.36 5.43Q89.36 6.01 89.29 6.73L89.29 6.73L89.29 6.73Q90.34 6.73 91.29 6.44L91.29 6.44L91.29 6.44Q91.46 6.72 91.46 7.09L91.46 7.09L91.46 7.09Q91.46 7.46 91.13 7.69L91.13 7.69L91.13 7.69Q90.80 7.92 90.47 7.92L90.47 7.92L90.47 7.92Q90.13 7.92 89.71 7.84L89.71 7.84L89.71 7.84Q89.29 7.76 89.17 7.74L89.17 7.74L89.17 7.74Q89.15 7.87 89.09 8.25L89.09 8.25L89.09 8.25Q89.03 8.62 88.98 8.90L88.98 8.90L88.98 8.90Q88.87 9.67 88.87 10.56L88.87 10.56L88.87 10.56Q88.87 12.47 90.12 12.47L90.12 12.47L90.12 12.47Q90.58 12.47 91.18 12.15L91.18 12.15L91.18 12.15Q91.36 12.42 91.36 12.84L91.36 12.84L91.36 12.84Q91.36 13.26 90.91 13.49L90.91 13.49L90.91 13.49Q90.45 13.72 89.82 13.72L89.82 13.72L89.82 13.72Q87.36 13.72 87.36 10.92L87.36 10.92L87.36 10.92Q87.36 10.51 87.48 9.45L87.48 9.45L87.48 9.45Q87.60 8.39 87.60 7.73L87.60 7.73L87.60 7.73Q86.93 7.77 86.52 7.97L86.52 7.97L86.52 7.97Q86.35 7.71 86.35 7.39L86.35 7.39L86.35 7.39Q86.35 7.06 86.59 6.84L86.59 6.84L86.59 6.84Q86.83 6.62 87.18 6.62L87.18 6.62L87.18 6.62Q87.53 6.62 87.64 6.64L87.64 6.64L87.64 6.64Q87.65 6.52 87.65 6.34L87.65 6.34L87.65 6.34Q87.65 5.29 87.42 4.49ZM93.66 10.46L93.66 10.46L93.66 10.46Q93.66 11.47 93.98 12.05L93.98 12.05L93.98 12.05Q94.30 12.63 95.06 12.63L95.06 12.63L95.06 12.63Q95.82 12.63 96.24 12.12L96.24 12.12L96.24 12.12Q96.67 11.61 96.67 10.88L96.67 10.88L96.67 10.88Q97.15 10.88 97.50 11.12L97.50 11.12L97.50 11.12Q97.85 11.35 97.85 11.77L97.85 11.77L97.85 11.77Q97.85 12.64 96.92 13.22L96.92 13.22L96.92 13.22Q96.00 13.80 94.98 13.80L94.98 13.80L94.98 13.80Q93.38 13.80 92.67 12.94L92.67 12.94L92.67 12.94Q91.95 12.08 91.95 10.39L91.95 10.39L91.95 10.39Q91.95 8.69 92.91 7.54L92.91 7.54L92.91 7.54Q93.87 6.38 95.47 6.38L95.47 6.38L95.47 6.38Q96.56 6.38 97.22 6.88L97.22 6.88L97.22 6.88Q97.89 7.38 97.89 8.42L97.89 8.42L97.89 8.42Q97.89 9.46 96.94 9.99L96.94 9.99L96.94 9.99Q96.00 10.51 94.64 10.51L94.64 10.51L94.64 10.51Q94.16 10.51 93.66 10.46ZM93.67 9.35L93.67 9.35L93.67 9.35Q94.09 9.44 94.56 9.44L94.56 9.44L94.56 9.44Q95.56 9.44 96.25 9.06L96.25 9.06L96.25 9.06Q96.33 8.72 96.33 8.53L96.33 8.53L96.33 8.53Q96.33 8.04 95.98 7.78L95.98 7.78L95.98 7.78Q95.63 7.53 95.02 7.53L95.02 7.53L95.02 7.53Q94.42 7.53 93.93 7.92L93.93 7.92L93.93 7.92Q93.67 8.65 93.67 9.35ZM101.26 13.47L101.26 13.47Q100.83 13.64 100.34 13.64L100.34 13.64L100.34 13.64Q99.85 13.64 99.55 13.41L99.55 13.41L99.55 13.41Q99.25 13.17 99.25 12.76L99.25 12.76L99.25 12.76Q99.25 12.35 99.37 11.26L99.37 11.26L99.37 11.26Q99.50 10.16 99.50 9.14L99.50 9.14L99.50 9.14Q99.50 8.11 99.18 6.72L99.18 6.72L99.18 6.72Q99.62 6.55 100.06 6.55L100.06 6.55L100.06 6.55Q100.49 6.55 100.81 6.85L100.81 6.85L100.81 6.85Q101.12 7.14 101.12 7.63L101.12 7.63L101.12 7.63Q101.12 7.88 101.04 8.38L101.04 8.38L101.04 8.38Q100.95 8.88 100.94 9.13L100.94 9.13L100.94 9.13Q101.49 7.88 102.23 7.18L102.23 7.18L102.23 7.18Q102.98 6.47 103.73 6.47L103.73 6.47L103.73 6.47Q104.24 6.47 104.55 6.83L104.55 6.83L104.55 6.83Q104.86 7.20 104.86 7.75L104.86 7.75L104.86 7.75Q104.86 8.30 104.58 8.64L104.58 8.64L104.58 8.64Q104.30 8.99 103.89 8.99L103.89 8.99L103.89 8.99Q103.47 8.99 103.22 8.90L103.22 8.90L103.22 8.90Q103.26 8.74 103.26 8.60L103.26 8.60L103.26 8.60Q103.26 8.02 102.86 8.02L102.86 8.02L102.86 8.02Q102.24 8.02 101.70 9.26L101.70 9.26L101.70 9.26Q101.16 10.50 100.98 11.58L100.98 11.58L100.98 11.58Q101.05 12.63 101.26 13.47L101.26 13.47ZM105.66 6.68L105.66 6.68L105.66 6.68Q106.11 6.55 106.56 6.55L106.56 6.55L106.56 6.55Q107.02 6.55 107.34 6.83L107.34 6.83L107.34 6.83Q107.66 7.11 107.66 7.55L107.66 7.55L107.66 7.55Q107.66 7.99 107.51 9.08L107.51 9.08L107.51 9.08Q107.37 10.16 107.37 10.77L107.37 10.77L107.37 10.77Q107.37 12.33 107.66 13.47L107.66 13.47L107.66 13.47Q107.23 13.64 106.72 13.64L106.72 13.64L106.72 13.64Q106.22 13.64 105.92 13.41L105.92 13.41L105.92 13.41Q105.63 13.17 105.63 12.73L105.63 12.73L105.63 12.73Q105.63 12.29 105.80 11.28L105.80 11.28L105.80 11.28Q105.97 10.28 105.97 9.62L105.97 9.62L105.97 9.62Q105.97 7.87 105.66 6.68ZM105.84 3.51L105.84 3.51L105.84 3.51Q106.33 3.29 106.81 3.29L106.81 3.29L106.81 3.29Q107.28 3.29 107.51 3.54L107.51 3.54L107.51 3.54Q107.74 3.78 107.74 4.26L107.74 4.26L107.74 4.26Q107.74 4.73 107.43 5.10L107.43 5.10L107.43 5.10Q107.11 5.46 106.61 5.46L106.61 5.46L106.61 5.46Q105.57 5.46 105.57 4.38L105.57 4.38L105.57 4.38Q105.57 3.91 105.84 3.51ZM111.72 13.80L111.72 13.80L111.72 13.80Q110.18 13.80 109.45 12.90L109.45 12.90L109.45 12.90Q108.72 12.00 108.72 10.38L108.72 10.38L108.72 10.38Q108.72 8.76 109.69 7.57L109.69 7.57L109.69 7.57Q110.66 6.38 112.17 6.38L112.17 6.38L112.17 6.38Q115.28 6.38 115.28 9.88L115.28 9.88L115.28 9.88Q115.28 11.52 114.27 12.66L114.27 12.66L114.27 12.66Q113.26 13.80 111.72 13.80ZM110.71 7.92L110.71 7.92L110.71 7.92Q110.46 8.74 110.46 9.55L110.46 9.55L110.46 9.55Q110.46 10.36 110.52 10.81L110.52 10.81L110.52 10.81Q110.57 11.26 110.73 11.70L110.73 11.70L110.73 11.70Q111.05 12.61 111.99 12.61L111.99 12.61L111.99 12.61Q112.94 12.61 113.24 12.11L113.24 12.11L113.24 12.11Q113.54 11.61 113.54 10.56L113.54 10.56L113.54 10.56Q113.54 7.57 112.13 7.57L112.13 7.57L112.13 7.57Q111.31 7.57 110.71 7.92ZM118.44 13.47L118.44 13.47Q118.01 13.64 117.52 13.64L117.52 13.64L117.52 13.64Q117.03 13.64 116.72 13.41L116.72 13.41L116.72 13.41Q116.42 13.17 116.42 12.76L116.42 12.76L116.42 12.76Q116.42 12.35 116.55 11.26L116.55 11.26L116.55 11.26Q116.68 10.16 116.68 9.14L116.68 9.14L116.68 9.14Q116.68 8.11 116.35 6.72L116.35 6.72L116.35 6.72Q116.80 6.55 117.24 6.55L117.24 6.55L117.24 6.55Q117.67 6.55 117.98 6.85L117.98 6.85L117.98 6.85Q118.30 7.14 118.30 7.63L118.30 7.63L118.30 7.63Q118.30 7.88 118.22 8.38L118.22 8.38L118.22 8.38Q118.13 8.88 118.12 9.13L118.12 9.13L118.12 9.13Q118.66 7.88 119.41 7.18L119.41 7.18L119.41 7.18Q120.16 6.47 120.90 6.47L120.90 6.47L120.90 6.47Q121.42 6.47 121.73 6.83L121.73 6.83L121.73 6.83Q122.04 7.20 122.04 7.75L122.04 7.75L122.04 7.75Q122.04 8.30 121.76 8.64L121.76 8.64L121.76 8.64Q121.48 8.99 121.06 8.99L121.06 8.99L121.06 8.99Q120.65 8.99 120.40 8.90L120.40 8.90L120.40 8.90Q120.44 8.74 120.44 8.60L120.44 8.60L120.44 8.60Q120.44 8.02 120.04 8.02L120.04 8.02L120.04 8.02Q119.42 8.02 118.88 9.26L118.88 9.26L118.88 9.26Q118.34 10.50 118.16 11.58L118.16 11.58L118.16 11.58Q118.23 12.63 118.44 13.47L118.44 13.47ZM124.03 11.09L124.03 11.09L124.03 11.09Q123.98 11.28 123.98 11.41L123.98 11.41L123.98 11.41Q123.98 11.98 124.33 12.29L124.33 12.29L124.33 12.29Q124.67 12.60 125.25 12.60L125.25 12.60L125.25 12.60Q125.83 12.60 126.22 12.38L126.22 12.38L126.22 12.38Q126.60 12.17 126.60 11.73L126.60 11.73L126.60 11.73Q126.60 11.30 126.19 11.04L126.19 11.04L126.19 11.04Q125.78 10.78 125.19 10.63L125.19 10.63L125.19 10.63Q124.61 10.47 124.03 10.28L124.03 10.28L124.03 10.28Q123.44 10.09 123.02 9.69L123.02 9.69L123.02 9.69Q122.61 9.28 122.61 8.67L122.61 8.67L122.61 8.67Q122.61 7.70 123.63 7.04L123.63 7.04L123.63 7.04Q124.66 6.38 125.78 6.38L125.78 6.38L125.78 6.38Q127.01 6.38 127.65 6.89L127.65 6.89L127.65 6.89Q128.03 7.18 128.03 7.67L128.03 7.67L128.03 7.67Q128.03 8.15 127.66 8.45L127.66 8.45L127.66 8.45Q127.29 8.75 126.76 8.75L126.76 8.75L126.76 8.75Q126.64 8.75 126.48 8.72L126.48 8.72L126.48 8.72Q126.52 8.54 126.52 8.40L126.52 8.40L126.52 8.40Q126.52 7.99 126.21 7.78L126.21 7.78L126.21 7.78Q125.90 7.57 125.38 7.57L125.38 7.57L125.38 7.57Q124.85 7.57 124.42 7.78L124.42 7.78L124.42 7.78Q124.25 8.01 124.25 8.36L124.25 8.36L124.25 8.36Q124.25 8.71 124.66 8.93L124.66 8.93L124.66 8.93Q125.06 9.14 125.64 9.30L125.64 9.30L125.64 9.30Q126.22 9.46 126.81 9.67L126.81 9.67L126.81 9.67Q127.40 9.87 127.81 10.30L127.81 10.30L127.81 10.30Q128.21 10.72 128.21 11.37L128.21 11.37L128.21 11.37Q128.21 12.42 127.17 13.11L127.17 13.11L127.17 13.11Q126.13 13.80 125.02 13.80L125.02 13.80L125.02 13.80Q123.91 13.80 123.19 13.41L123.19 13.41L123.19 13.41Q122.47 13.01 122.47 12.19L122.47 12.19L122.47 12.19Q122.47 11.69 122.84 11.38L122.84 11.38L122.84 11.38Q123.21 11.06 123.75 11.06L123.75 11.06L123.75 11.06Q123.86 11.06 124.03 11.09Z"></path></g><!----><g data-v-423bf9ae="" id="1a55ac63-e2a3-48dc-b30a-5eaf4c652240" transform="matrix(1.4379293781848441,0,0,1.4379293781848441,-11.69659952208957,-9.014705762578338)" stroke="none" fill="#FFD009"><path d="M102.923 54.276l-6.311 6.407-41.002-41.05-41.026 41.05-6.395-6.407L55.584 6.887l.071.068.249-.071L75.281 26.08V12.474h8v22.35z"></path><path d="M47.281 40.474h17v29h-17z"></path></g><!----></svg>